<svg xmlns="http://www.w3.org/2000/svg" width="100%" height="100%" viewBox="0 0 1148 392" fill-rule="evenodd" stroke-linejoin="round" stroke-miterlimit="2" xmlns:v="https://vecta.io/nano"><path d="M426.4 377.25c-.15-.25-11.9-35.55-26.1-78.35L373.45 221c-.95 0-1.55-1-2.25-3.75-.25-.95-.1-1.25.5-1.25.45 0 .8-.15.8-.4 0-.2-2.7-8.4-5.95-18.2-4.85-14.45-5.8-17.9-5.2-18.1.4-.15 3.2-.3 6.15-.3 5.05 0 5.5.1 6 1.05.35.55 3.1 8.6 6.2 17.85 4.8 14.25 5.8 16.85 6.6 16.85.9 0 1.35.8 2.4 4.15.3.9.2 1.1-.6 1.1-.9 0 1.1 6.4 18.55 58.75l19.9 58.75c.2 0 39.25-116.75 40.75-121.95.15-.4.35-.6.45-.45.2.2 27.1 81.1 36.75 110.65 2 6.05 3.8 11.2 4 11.4.2.25 10.2-28.95 22.15-64.85L551.4 207c-.6 0-.9-.25-.8-.6.15-.35.75-2.2 1.4-4.05.8-2.45 1.4-3.55 2.2-3.8.85-.3 1.7-2.25 4.3-9.85l3.25-9.45 6.15-.15c4.6-.1 6.2.05 6.35.5.15.35-1 4.35-2.5 8.9l-2.75 8.35c0 .1.45.15.95.15.95 0 .9.25-.5 4.45-1.25 3.6-1.75 4.5-2.6 4.65-.95.15-4.1 9.35-29.55 85.8l-28.85 85c-.2-.35-9.35-28-20.4-61.4l-20.25-60.9c-.1-.05-9.4 27.6-20.65 61.5l-20.75 61.15zm473-12.75c-10.5-1.65-18.95-5.95-25.6-13.05-3.05-3.2-4.8-5.7-4.25-6.1.1-.1 2.3-1.6 4.9-3.3l4.65-3.2 1.3 1.7c3.45 4.45 9.25 8.5 15.1 10.45 4.55 1.55 13.5 1.95 17.95.75 4.2-1.1 6.65-2.35 9.4-4.9 3.45-3.15 4.8-6.25 5.05-11.5.3-5.65-.55-8-3.95-11.05s-7.8-4.75-21.35-8.25c-6.3-1.65-12.95-3.6-14.8-4.35-10.1-4.05-16.1-11.15-17.25-20.45-1.2-9.9 1.85-19.2 8.45-25.75 6.4-6.35 15-9.55 25.9-9.55 14.15.05 24.95 5.85 33.65 18.2 1.4 2 1.55 2.5.95 2.85l-5 3.2-4.25 2.75-1.5-1.85c-.8-1-2.95-3.35-4.75-5.15-8.25-8.3-21.6-10.25-32.45-4.75-6.8 3.45-10.6 11.15-9.05 18.45.7 3.5 2.1 5.55 5.25 7.95 3.3 2.5 7.4 3.95 20.25 7.2 11.75 3 17.35 5.05 21.7 7.95 8.55 5.7 12.2 15.25 10.1 26.75-2.15 11.9-10.6 20.7-23 23.95-4.55 1.2-13.2 1.7-17.4 1.05zm-609.25-.75c-15.75-2.85-28.5-12.15-35.4-25.75-5.85-11.55-7.2-27.6-3.55-41.3 5.1-19 19.65-32.65 39.05-36.75 4.95-1.05 15.7-.8 20.95.45 8.95 2.2 18.8 7.75 25.7 14.5 6.5 6.3 12.3 16.6 14.4 25.5.8 3.3 1.15 16 .45 17.1-.2.35-15.9.5-45.05.5h-44.8l.35 2.1c1 5.7 4.7 13.8 8.65 18.7 8.45 10.45 21.35 15.05 37.05 13.25 9.6-1.15 15.75-3.3 21.5-7.65l2.65-2 4.2 4.15c2.3 2.3 4.2 4.35 4.2 4.55 0 .85-6.05 5.05-10.25 7.15-8.5 4.2-18.6 6.25-30.25 6.2-3.45 0-7.85-.35-9.85-.7zm49-58.1c.5-.8-2.3-9.05-4.2-12.65-10.25-18.95-33.3-26.85-51.7-17.65-7.8 3.9-13.2 9.5-17.5 18.1-1.6 3.15-3.75 10-3.75 11.9 0 .55 6.65.65 38.45.65l38.7-.35zm282 58.1c-19.8-3.6-34.7-18.85-39.3-40.25-1.3-6.2-1.4-17.85-.15-23.75 2.35-11.1 6.85-19.95 13.9-27.5 10.35-11.05 25.95-16.7 40.9-14.75 11.45 1.5 20.4 5.95 28.35 14.15 8.25 8.5 13.1 18.35 14.9 30.2 3.4 22.35-5.45 44.05-22.4 55.05-9.85 6.45-23.9 9.1-36.2 6.85zm19.6-12.75c12.7-3.95 21.3-13 25.6-26.85 1.25-4.05 1.35-5.05 1.35-12.9-.05-9.8-.8-13.6-4.2-20.45-4.05-8.3-9.75-14.15-17.25-17.8-5.5-2.65-9.35-3.55-15.5-3.55-17.15-.05-30.6 10.55-36.05 28.3-1.3 4.15-1.4 5.15-1.4 13.25-.05 7.65.1 9.25 1.1 12.65 4.4 15.15 15.55 25.75 30 28.35 3.9.75 12.4.2 16.35-1zm-624.5 11.75c-.15-.55-.2-41.7-.1-91.5l.1-90.5 53.5-.15 54 .1c.3.1.45 2.25.35 5.5l-.15 5.3H28.5l.1 37.4.15 37.35 33.65.15 33.6.1v11H28.5v86.25h-6c-5.65 0-6.05-.05-6.25-1zm128.25 1V258h12v105.45l-12 .3zm36.7-.2c-.1-.1-.2-24.05-.2-53.15v-52.9h12v9.75c0 5.35.15 9.75.3 9.75.2 0 2-1.7 4.1-3.75 6.3-6.35 12.95-10.6 20.85-13.2 4.7-1.55 12.25-2.75 15.25-2.45l1.75.15.05 5.8v5.8l-5 .6c-6 .7-9.8 1.75-14.55 4.15-12.25 6.2-20.5 18.15-22.2 32.15C193.2 309 193 321 193 337.1v26.35l-5.8.15c-3.2.1-5.9.05-6-.05zm521.45.05l-5.65-.15V257.5h12v19.9l4.4-4.35c10-9.85 22.95-15.55 35.4-15.55h2.2v11.85l-5.05.6c-14.8 1.65-26.45 9.95-32.7 23.3-4.05 8.55-3.95 7.35-4.15 40.5l-.5 29.75c-.2.15-2.9.2-5.95.1zm73 0l-5.65-.15v-86.7l-.75-86.75c-.6 0-.75-.95-.75-5.5V179h15v5c0 4.1-.15 5-.75 5-.65 0-.75 7.05-.75 60.55l.45 60.35c.25-.05 12.4-11.9 27.05-26.25l26.65-26.15h16.6l-24.95 24.95-24.75 25.45c.2.5 4.05 5.05 33.6 40.05l12.65 15.25c.15.4-1.9.5-7.6.45-4.3-.05-7.9-.2-7.95-.25-1.4-2.05-39.15-46.6-39.65-46.75-.45-.2-2.8 1.8-6.4 5.4l-5.7 5.7v17.85c0 9.8-.15 17.9-.35 18-.25.1-2.95.1-6 0zm225.45-33.65c-1.2-.6-2.75-1.9-3.4-2.95-1.65-2.45-4.35-15.15-4.05-18.85.25-3.4 2.1-6.2 4.95-7.55 2.95-1.45 31.4-7.15 33.5-6.75 2.4.45 5.15 1.95 6.3 3.4 1.35 1.65 1.8 3.15 3.35 10.5 1.35 6.45 1.55 9.4.7 11.6-.7 1.95-3.85 5.05-5.65 5.65-3.25 1.05-29.05 6-31.25 6-1.35 0-3.2-.45-4.45-1.05zm19.85-6.7c7.5-1.5 14.05-3 14.55-3.25 1.4-.75 2.5-2.55 2.5-4.15 0-2.35-2.55-13.95-3.35-15.15-1.55-2.45-2.6-2.4-18.45.8-8.1 1.65-15.15 3.3-15.7 3.6-1.1.7-2 2.5-2 4.1 0 1.85 2.4 13.2 3.05 14.45.9 1.65 2 2.3 4 2.35 1 0 7.95-1.25 15.4-2.75zM1003 291.1c0-.25-1.35-20.25-3-44.4l-2.9-44.65c.1-.4 6.15 18.6 13.45 42.25l13 43.3c-.15.15-4.25 1-9.05 1.85l-10.1 1.85c-.8.15-1.4.05-1.4-.2zm-136.75-37.8c-3-1.35-4.55-3.85-10.75-17.55-6.45-14.2-7.2-16.8-6.05-20.35 1-3 3.8-5.1 11.15-8.35 5.5-2.45 7.3-3.05 9.4-3.05 2.95 0 5.3.95 7.15 2.9 1.75 1.85 13.9 28.65 14.25 31.35.1 1.2-.05 2.95-.4 4-1.15 3.4-3 4.9-10.7 8.45-7.75 3.55-10.7 4.1-14.05 2.6zm12.25-7.25c6.5-2.95 7.4-3.65 7.8-6.1.25-1.45-.7-3.85-5.95-15.45-6.5-14.35-7.4-15.7-10.2-15.65-2.05 0-14 5.55-15.15 7.05-.55.65-1 1.9-1 2.75 0 1.8 11.55 27.55 13.1 29.2 1.95 2.1 3.15 1.9 11.4-1.8zm12.85-26.35c-2.15-4.3-3.75-8-3.5-8.2.2-.2 6.7-2.9 14.4-6l31.9-12.85 18.1-7.05c.1.15-56 41.5-56.7 41.8-.15.05-2.05-3.4-4.2-7.7zm220.1-27.7c-6-.45-8.65-1.5-10.6-4.1-2.25-3-2.35-4.2-1.3-20.5 1.05-16.65 1.4-18.4 4.2-20.85 2.85-2.5 4.7-2.8 13.75-2.2 7.5.45 8.1.55 10.3 1.95 1.55.95 2.8 2.2 3.55 3.65 1.4 2.7 1.45 4.1.2 22.1-1 14.9-1.35 16.1-5.15 18.8-1.65 1.1-2.55 1.35-5.8 1.45-2.1.05-6.25-.05-9.15-.3zm12.65-5.95l1.6-1.4.85-12.7c1.15-16.25 1.15-18.65.15-20.2-1.1-1.7-3-2.15-10.95-2.5-6.65-.35-7.05-.3-8.35.7-.7.6-1.45 1.7-1.6 2.45-.2.75-.75 7.75-1.25 15.6-1.25 18.7-1.4 18.3 7.4 19 9.55.7 10.35.65 12.15-.95zm-154.75-.35c-3-.95-6.4-4.2-7.5-7.25-1.1-2.85-2.4-21.15-1.75-24.05.6-2.75 1.5-4.35 3.5-6.2 3.65-3.45 3.05-3.35 30.9-5.25 9.2-.6 17.6-.95 18.6-.75 2.85.55 6.35 3.25 8 6.15 1.4 2.45 1.5 3.2 2.2 12.25.45 5.3.65 10.7.5 12-.45 4.35-3.55 8.5-7.5 10.15-1.45.6-7.3 1.2-22.25 2.3l-21.3 1.4c-.55 0-2.1-.35-3.4-.75zm24.15-5.65c20.35-1.45 21.6-1.65 23.6-3.85 1.85-2.1 2-3.55 1.4-12.95-.35-4.95-.8-9.8-1.05-10.85-.5-2.05-3.2-4.7-5.3-5.2-.75-.2-10.35.25-21.35 1-21.4 1.5-22.4 1.65-24.45 4.35-1.55 2.1-1.7 4.3-1 13.95.8 10.75 1.25 12.15 4.65 13.9 1.2.6 2.55 1.1 3 1.1.4-.05 9.65-.65 20.5-1.45zm69-9.85l-29.25-6.65c-.85-.4-.7-.5.85-.5 1.55-.05 52.6-6 58.1-6.8l1.95-.3-.3 3.65c-.2 2-.5 6.65-.65 10.3-.35 6.3-.4 6.6-1.4 6.55-.6-.05-13.75-2.85-29.3-6.25zm-99.7-34.6c-.15-.3-13-11.05-28.55-23.9L906 88c0-.3 11-10.5 16.05-14.9l1.85-1.6 19.85 32.05 19.6 32.3c-.15.1-.4 0-.55-.25zm45.45-14.9l8.75-37.45 7.5-30.9c.55-.65 21.75 9.4 21.7 10.25-.05.75-37.85 63.15-38.95 64.35-.4.4 0-2.1 1-6.25zM888.5 88.1c-.95-.55-4.25-3.65-7.3-7-4.3-4.7-5.7-6.55-6.2-8.3-.7-2.55-.35-5.45 1-7.65 1.2-2 22.5-21.65 24.8-22.85 2.2-1.15 6.4-1.25 8.5-.15 1.45.75 6.4 5.65 10.85 10.7 3.5 4 4.2 8.45 1.95 12.25-1.2 2.05-22.2 21.4-24.7 22.8-2.6 1.4-6.45 1.5-8.9.2zm17.1-13.85c5.85-5.35 11.15-10.45 11.8-11.3 1.35-1.95 1.4-3.25.15-5.2-1.65-2.65-10-11.15-11.3-11.45-.65-.15-1.9-.05-2.7.3s-6.45 5.2-12.5 10.8c-9.1 8.4-11.05 10.4-11.3 11.8-.45 2.35.4 3.7 6.1 9.7 4.7 4.9 5 5.1 7 5.1s2.45-.35 12.75-9.75zm134.15-22.95c-15.45-6.75-17.05-7.75-18.25-11.95-.9-3.25-.55-4.75 3-12.75 3.1-7.1 4.3-8.75 7.45-10.35 3.35-1.7 6-1 20.8 5.5 7.45 3.2 14.2 6.4 15.05 7.05.9.65 2.05 2.15 2.65 3.35 1.7 3.55 1.4 5.75-1.9 13.35-4.3 9.85-6.55 12.05-12.15 11.95-2.25 0-4.8-.95-16.65-6.15zm19.95.1c1.35-1.2 6.8-13.15 6.8-14.9 0-1.8-1.2-3.6-2.95-4.5-5.7-2.85-26.65-11.5-27.95-11.5-.9 0-2.05.5-2.8 1.15-1.25 1.1-6.8 13.4-6.8 15.05 0 .45.35 1.5.75 2.25.6 1.2 2.35 2.15 9.85 5.45l13.65 6c5.3 2.35 7.65 2.6 9.45 1z" fill="#130089" fill-rule="nonzero"/><path d="M963.8 278.3c-2.75-.6-5.05-1.35-5.15-1.65-.25-.65 23.4-74.75 23.75-74.45.1.15-.85 6.5-2.1 14.15l-6.05 36.9-4 24.65c-.35 1.85-.05 1.85-6.45.4zm79.8-14.15c-.25-.5-4.45-9.55-9.25-20.15L1021 214.75c-6.45-14.05-6.55-14.35-2.9-9.1l19.4 27.35 17.2 24.95c.05.4-1.65 1.7-3.7 2.95l-5.35 3.15c-1.5.95-1.6.95-2.05.1zm-119.1-20.4l-4.25-4.25 1.5-1.45c5-4.8 45.85-41.05 45.25-40.15-3.35 4.95-37.35 50.05-37.75 50.1-.3 0-2.4-1.9-4.75-4.25zm-776.5-5.4c0-.5 1.75-.85 6.15-1.25l16.85-1.6 21-2 18-1.75 12.9-1.25 10.25-1 13-1.25 15.5-1.5L280 225l20.75-2 20.75-2 15.75-1.5 18.25-1.75 15.25-1.5 2.05-.3.8 2.5.8 2.45-2.85.3c-2.65.3-6 .55-22.35 1.8l-12.7 1-12.5 1-19.5 1.5-25.75 2L260 230l-12.25.95L228 232.5l-64 4.95-14.6 1.3c-.95.15-1.4 0-1.4-.4zm907.85-28.7l-26.7-19.45c.1-.1 5.9 2.3 12.9 5.35l30.4 13.25 17.95 7.9c.4.4-6.45 12.3-7.05 12.25-.35 0-12.7-8.7-27.5-19.3zM386.3 217.7c-.45-1.3-.7-2.5-.55-2.6.2-.25 19.65-2.15 81.75-8.1l30.75-3 29-2.7 26.3-2.7 1.8-.45-1.45 4.4-1.45 4.35-2.35.3c-1.3.15-5.4.5-9.1.8l-38.5 3-12.5 1-51.5 4-25.5 2-22.55 1.8-3.3.3-.85-2.4zm179.7-12c0-.25.65-2.25 1.45-4.45l1.45-4 18.9-1.85 40.2-3.85 47.25-4.55 73.2-7.05L800.2 175l77.8-7.5 51.5-4.95c11.15-1.1 20.4-1.8 20.65-1.6.4.4 1.3 8.95 1.35 12.6v2.3l-4.35.3L917 178.5l-19.5 1.5-25 2-12.5 1-32.5 2.5-19.25 1.5-15.5 1.25-9.85.75c-.8 0-.9-.55-.9-4.25v-4.25h-12v9.35l-2.85.35-9.4.8-25.75 2-25.25 2-13 1-19.25 1.5-25.5 2-25.5 2-32.25 2.5-22.35 1.8c-1.6.2-2.9.15-2.9-.1zm470-59.45c4.05-1.55 53.2-18.65 53.35-18.5.25.15 2.7 8.9 2.55 9.05-.15.1-30.65 5.65-50.9 9.25l-7 1.25c-.7.15.2-.35 2-1.05zm-91-1.8l-30.25-9.55-24.2-7.7c-.1-.1.15-.9.6-1.8l3.05-6.5 2.45-4.9 25.4 14.85 27.35 16.05c1.15.65 2.1 1.3 2.1 1.4s-.05.2-.1.15c-.1 0-2.95-.9-6.4-2zm79.75-10.45c.6-.95 37.35-41.25 37.8-41.4.6-.25 7.65 8.4 7.15 8.85-.25.2-8.45 6.2-18.2 13.3l-22.45 16.4c-2.55 1.9-4.5 3.15-4.3 2.85zM993 122.25c0-4.35-1.8-51.65-2.2-57.85l-.25-3.9h6.7c3.65 0 6.8.2 6.95.4.3.5-10.4 64.5-10.9 64.95-.15.15-.3-1.45-.3-3.6zm-16.95 2.2c-.25-.65-4.45-9.4-9.3-19.45-12.25-25.2-12.85-26.5-12.1-26.75 1.55-.6 11.1-3.15 11.25-3.05.3.35 11.05 50 10.85 50.2-.15.15-.45-.3-.7-.95z" fill-rule="nonzero" fill="#6e6bfe"/></svg>